<svg width="32" height="32" viewBox="0 0 32 32" fill="none" xmlns="http://www.w3.org/2000/svg">
<g clip-path="url(#clip0_1977_63464)">
<path d="M35.5 35.5H-3.5V-3.5H35.5V35.5ZM6.875 8.75C6.72636 8.74833 6.57899 8.77673 6.44141 8.83301C6.30374 8.88934 6.17813 8.97266 6.07324 9.07812C5.96849 9.18353 5.88559 9.30942 5.83008 9.44727C5.7747 9.58497 5.74754 9.73246 5.75 9.88086V23.8691C5.74757 24.015 5.77362 24.1601 5.82715 24.2959C5.88077 24.4318 5.96094 24.5561 6.0625 24.6611C6.16407 24.7662 6.28588 24.85 6.41992 24.9082C6.55383 24.9663 6.69781 24.9975 6.84375 25H24.6562C24.8024 24.9976 24.947 24.9664 25.0811 24.9082C25.2149 24.8501 25.336 24.766 25.4375 24.6611C25.5391 24.5561 25.6192 24.4318 25.6729 24.2959C25.7264 24.1601 25.7524 24.0151 25.75 23.8691V9.88086C25.7524 9.73492 25.7264 9.58988 25.6729 9.4541C25.6192 9.31818 25.5391 9.19392 25.4375 9.08887C25.336 8.98396 25.2149 8.89994 25.0811 8.8418C24.947 8.78362 24.8024 8.75244 24.6562 8.75H22.1562V10.625C22.1563 10.8056 22.1209 10.9845 22.0518 11.1514C21.9827 11.3181 21.8816 11.47 21.7539 11.5977C21.6262 11.7253 21.4744 11.8264 21.3076 11.8955C21.1408 11.9646 20.9618 12 20.7812 12C20.6007 12 20.4217 11.9646 20.2549 11.8955C20.0883 11.8265 19.9371 11.7251 19.8096 11.5977C19.6819 11.47 19.5798 11.3182 19.5107 11.1514C19.4416 10.9845 19.4062 10.8056 19.4062 10.625V8.75H12.125V10.625C12.125 10.9897 11.9805 11.3398 11.7227 11.5977C11.4648 11.8555 11.1146 12 10.75 12C10.3856 12 10.0361 11.8552 9.77832 11.5977C9.52046 11.3398 9.375 10.9897 9.375 10.625V8.75H6.875ZM10.75 21.25H9.5V20H10.75V21.25ZM14.5 21.25H13.25V20H14.5V21.25ZM18.25 21.25H17V20H18.25V21.25ZM22 21.25H20.75V20H22V21.25ZM10.75 18.125H9.5V16.875H10.75V18.125ZM14.5 18.125H13.25V16.875H14.5V18.125ZM18.25 18.125H17V16.875H18.25V18.125ZM22 18.125H20.75V16.875H22V18.125ZM10.75 15H9.5V13.75H10.75V15ZM14.5 15H13.25V13.75H14.5V15ZM18.25 15H17V13.75H18.25V15ZM22 15H20.75V13.75H22V15ZM10.75 6.25C10.5842 6.25 10.4248 6.31541 10.3076 6.43262C10.1904 6.54983 10.125 6.70924 10.125 6.875V10.625C10.125 10.7908 10.1904 10.9502 10.3076 11.0674C10.4248 11.1846 10.5842 11.25 10.75 11.25C10.9158 11.25 11.0752 11.1846 11.1924 11.0674C11.3096 10.9502 11.375 10.7908 11.375 10.625V6.875C11.375 6.70924 11.3096 6.54983 11.1924 6.43262C11.0752 6.31541 10.9158 6.25 10.75 6.25ZM20.75 6.25C20.5842 6.25 20.4248 6.31541 20.3076 6.43262C20.1904 6.54983 20.125 6.70924 20.125 6.875V10.625C20.125 10.7908 20.1904 10.9502 20.3076 11.0674C20.4248 11.1846 20.5842 11.25 20.75 11.25C20.9158 11.25 21.0752 11.1846 21.1924 11.0674C21.3096 10.9502 21.375 10.7908 21.375 10.625V6.875C21.375 6.70924 21.3096 6.54983 21.1924 6.43262C21.0752 6.31541 20.9158 6.25 20.75 6.25Z" fill="#1E1E1E"/>
</g>
<defs>
<clipPath id="clip0_1977_63464">
<rect width="32" height="32" fill="white"/>
</clipPath>
</defs>
</svg>
