<svg width="20" height="20" viewBox="0 0 20 20" fill="none" xmlns="http://www.w3.org/2000/svg">
<path d="M16.875 2.5C17.0408 2.5 17.2002 2.56541 17.3174 2.68262C17.4346 2.79983 17.5 2.95924 17.5 3.125V13.125C17.5 13.2908 17.4346 13.4502 17.3174 13.5674C17.2002 13.6846 17.0408 13.75 16.875 13.75H13.75V16.875C13.75 17.0408 13.6846 17.2002 13.5674 17.3174C13.4502 17.4346 13.2908 17.5 13.125 17.5H3.125C2.95924 17.5 2.79983 17.4346 2.68262 17.3174C2.56541 17.2002 2.5 17.0408 2.5 16.875V6.875C2.5 6.70924 2.56541 6.54983 2.68262 6.43262C2.79983 6.31541 2.95924 6.25 3.125 6.25H6.25V3.125C6.25 2.95924 6.31541 2.79983 6.43262 2.68262C6.54983 2.56541 6.70924 2.5 6.875 2.5H16.875ZM11.4824 9C11.3446 9.00006 11.2235 9.05331 11.1201 9.16016L6.73633 13.6904L4.89941 11.7793C4.79602 11.6729 4.67322 11.6195 4.53125 11.6191C4.38919 11.6188 4.26591 11.6721 4.16211 11.7793C4.0584 11.8864 4.00424 12.0135 4 12.1602C3.99586 12.307 4.04595 12.4341 4.14941 12.541L6.37402 14.8398C6.47745 14.9466 6.59845 15 6.73633 15C6.874 14.9999 6.99435 14.9464 7.09766 14.8398L11.8447 9.92188C11.9482 9.81534 12 9.68816 12 9.54102C11.9999 9.39404 11.9481 9.26695 11.8447 9.16016C11.7413 9.05334 11.6203 9 11.4824 9ZM7.5 3.75V6.25H13.125C13.2908 6.25 13.4502 6.31541 13.5674 6.43262C13.6846 6.54983 13.75 6.70924 13.75 6.875V12.5H16.25V3.75H7.5Z" fill="#4E4E4E"/>
</svg>
