<svg width="32" height="32" viewBox="0 0 32 32" fill="none" xmlns="http://www.w3.org/2000/svg">
<g clip-path="url(#clip0_1977_63447)">
<path d="M35.5 35.5H-3.5L-3.5 -3.5L35.5 -3.5V35.5ZM7.66504 7.66699C6.51936 7.66717 5.59278 8.60428 5.59277 9.75L5.58203 22.25C5.58203 23.3957 6.51935 24.3328 7.66504 24.333H24.332C25.4779 24.333 26.415 23.3958 26.415 22.25V9.75C26.415 8.60418 25.4779 7.66699 24.332 7.66699H7.66504ZM23.3047 10.4541C23.4221 10.4302 23.5438 10.4299 23.6611 10.4541C23.7782 10.4783 23.8891 10.5265 23.9873 10.5947C24.0856 10.6631 24.1689 10.751 24.2324 10.8525C24.2959 10.954 24.338 11.0673 24.3564 11.1855C24.3748 11.3039 24.3695 11.425 24.3398 11.541C24.3102 11.6571 24.2575 11.7663 24.1846 11.8613C24.1116 11.9563 24.0195 12.0351 23.915 12.0938L16.5508 16.6982C16.2175 16.9065 15.7796 16.9065 15.4463 16.6982L8.08203 12.0938C7.97774 12.0352 7.88637 11.9561 7.81348 11.8613C7.74053 11.7663 7.6869 11.6571 7.65723 11.541C7.62758 11.425 7.62224 11.3039 7.64062 11.1855C7.65903 11.0673 7.70123 10.954 7.76465 10.8525C7.82813 10.751 7.91144 10.6631 8.00977 10.5947C8.1081 10.5263 8.2196 10.4783 8.33691 10.4541C8.45414 10.43 8.57511 10.4302 8.69238 10.4541C8.80975 10.478 8.92106 10.5256 9.01953 10.5938L15.999 14.958L22.9775 10.5938C23.0759 10.5256 23.1874 10.4781 23.3047 10.4541Z" fill="#1E1E1E"/>
</g>
<defs>
<clipPath id="clip0_1977_63447">
<rect width="32" height="32" fill="white"/>
</clipPath>
</defs>
</svg>
