<svg width="32" height="32" viewBox="0 0 32 32" fill="none" xmlns="http://www.w3.org/2000/svg">
<g clip-path="url(#clip0_1977_63453)">
<path d="M15.4101 -11C10.1862 -11 -1.36513 -8.92347 -4.73356 -5.43821C-7.95811 -2.1018 -15.5 6.03805 -15.5 11.0429C-15.5 16.0478 -11.0836 32.2414 -7.85904 35.5778C-4.49061 39.0631 8.44984 54 13.6737 54C18.435 54 33.3134 42.0115 36.5958 39.0537C40.3623 35.6596 42.5 24.709 42.5 19.2411C42.5 14.2964 37.8998 0.667769 34.7435 -2.6571C31.368 -6.21304 20.6941 -11 15.4101 -11ZM24.8152 9.94916C24.5374 12.8782 23.3334 19.9968 22.7222 23.278C22.4628 24.6684 21.9442 25.1319 21.4626 25.1875C20.3883 25.2802 19.5733 24.483 18.536 23.7971C16.906 22.7219 15.9798 22.0545 14.4054 21.0164C12.5716 19.8114 13.7571 19.144 14.8129 18.0688C15.0907 17.7908 19.8326 13.4714 19.9252 13.0821C19.9381 13.0231 19.9364 12.9619 19.9202 12.9038C19.9041 12.8456 19.874 12.7923 19.8326 12.7484C19.7215 12.6557 19.5733 12.6928 19.4436 12.7113C19.2769 12.7484 16.6837 14.4725 11.6269 17.8835C10.886 18.384 10.2192 18.6435 9.62647 18.625C8.95964 18.6064 7.70008 18.2542 6.75542 17.9391C5.58847 17.5683 4.68085 17.3644 4.75494 16.7156C4.79198 16.3819 5.25506 16.0482 6.12563 15.696C11.5343 13.3416 15.1278 11.7844 16.9245 11.0429C22.0739 8.89249 23.1297 8.52173 23.8335 8.52173C23.9817 8.52173 24.3337 8.5588 24.5559 8.74418C24.7412 8.89249 24.7967 9.09641 24.8152 9.24471C24.7967 9.35594 24.8338 9.68963 24.8152 9.94916Z" fill="#1E1E1E"/>
</g>
<defs>
<clipPath id="clip0_1977_63453">
<rect width="32" height="32" fill="white"/>
</clipPath>
</defs>
</svg>
